{
    "asset" : {
        "generator" : "Khronos glTF Blender I/O v1.1.46",
        "version" : "2.0"
    },
    "scene" : 0,
    "scenes" : [
        {
            "name" : "Scene",
            "nodes" : [
                0
            ]
        }
    ],
    "nodes" : [
        {
            "mesh" : 0,
            "name" : "path_stoneEnd"
        }
    ],
    "materials" : [
        {
            "doubleSided" : true,
            "emissiveFactor" : [
                0,
                0,
                0
            ],
            "name" : "stoneDark",
            "pbrMetallicRoughness" : {
                "baseColorFactor" : [
                    0.6039220094680786,
                    0.7098039984703064,
                    0.7294120192527771,
                    1
                ],
                "metallicFactor" : 0,
                "roughnessFactor" : 0.5
            }
        },
        {
            "doubleSided" : true,
            "emissiveFactor" : [
                0,
                0,
                0
            ],
            "name" : "stone",
            "pbrMetallicRoughness" : {
                "baseColorFactor" : [
                    0.7215690016746521,
                    0.8862749934196472,
                    0.9098039865493774,
                    1
                ],
                "metallicFactor" : 0,
                "roughnessFactor" : 0.5
            }
        },
        {
            "doubleSided" : true,
            "emissiveFactor" : [
                0,
                0,
                0
            ],
            "name" : "_defaultMat",
            "pbrMetallicRoughness" : {
                "baseColorFactor" : [
                    1,
                    1,
                    1,
                    1
                ],
                "metallicFactor" : 0,
                "roughnessFactor" : 0.5
            }
        }
    ],
    "meshes" : [
        {
            "name" : "ID9.002",
            "primitives" : [
                {
                    "attributes" : {
                        "POSITION" : 0,
                        "NORMAL" : 1,
                        "TEXCOORD_0" : 2
                    },
                    "indices" : 3,
                    "material" : 0
                },
                {
                    "attributes" : {
                        "POSITION" : 4,
                        "NORMAL" : 5,
                        "TEXCOORD_0" : 6
                    },
                    "indices" : 7,
                    "material" : 1
                },
                {
                    "attributes" : {
                        "POSITION" : 8,
                        "NORMAL" : 9,
                        "TEXCOORD_0" : 10
                    },
                    "indices" : 11,
                    "material" : 2
                }
            ]
        }
    ],
    "accessors" : [
        {
            "bufferView" : 0,
            "componentType" : 5126,
            "count" : 186,
            "max" : [
                1,
                0.060000017285346985,
                0.5858979821205139
            ],
            "min" : [
                -0.23646600544452667,
                -9.545490087248254e-08,
                -0.5561180114746094
            ],
            "type" : "VEC3"
        },
        {
            "bufferView" : 1,
            "componentType" : 5126,
            "count" : 186,
            "type" : "VEC3"
        },
        {
            "bufferView" : 2,
            "componentType" : 5126,
            "count" : 186,
            "type" : "VEC2"
        },
        {
            "bufferView" : 3,
            "componentType" : 5123,
            "count" : 186,
            "type" : "SCALAR"
        },
        {
            "bufferView" : 4,
            "componentType" : 5126,
            "count" : 66,
            "max" : [
                1,
                0.060000017285346985,
                0.5858979821205139
            ],
            "min" : [
                -0.23646600544452667,
                0.014999976381659508,
                -0.5561180114746094
            ],
            "type" : "VEC3"
        },
        {
            "bufferView" : 5,
            "componentType" : 5126,
            "count" : 66,
            "type" : "VEC3"
        },
        {
            "bufferView" : 6,
            "componentType" : 5126,
            "count" : 66,
            "type" : "VEC2"
        },
        {
            "bufferView" : 7,
            "componentType" : 5123,
            "count" : 66,
            "type" : "SCALAR"
        },
        {
            "bufferView" : 8,
            "componentType" : 5126,
            "count" : 24,
            "max" : [
                0.7973359823226929,
                9.060313033160128e-08,
                0.5858979821205139
            ],
            "min" : [
                -0.08856800198554993,
                -9.545490087248254e-08,
                -0.5561180114746094
            ],
            "type" : "VEC3"
        },
        {
            "bufferView" : 9,
            "componentType" : 5126,
            "count" : 24,
            "type" : "VEC3"
        },
        {
            "bufferView" : 10,
            "componentType" : 5126,
            "count" : 24,
            "type" : "VEC2"
        },
        {
            "bufferView" : 11,
            "componentType" : 5123,
            "count" : 24,
            "type" : "SCALAR"
        }
    ],
    "bufferViews" : [
        {
            "buffer" : 0,
            "byteLength" : 2232,
            "byteOffset" : 0
        },
        {
            "buffer" : 0,
            "byteLength" : 2232,
            "byteOffset" : 2232
        },
        {
            "buffer" : 0,
            "byteLength" : 1488,
            "byteOffset" : 4464
        },
        {
            "buffer" : 0,
            "byteLength" : 372,
            "byteOffset" : 5952
        },
        {
            "buffer" : 0,
            "byteLength" : 792,
            "byteOffset" : 6324
        },
        {
            "buffer" : 0,
            "byteLength" : 792,
            "byteOffset" : 7116
        },
        {
            "buffer" : 0,
            "byteLength" : 528,
            "byteOffset" : 7908
        },
        {
            "buffer" : 0,
            "byteLength" : 132,
            "byteOffset" : 8436
        },
        {
            "buffer" : 0,
            "byteLength" : 288,
            "byteOffset" : 8568
        },
        {
            "buffer" : 0,
            "byteLength" : 288,
            "byteOffset" : 8856
        },
        {
            "buffer" : 0,
            "byteLength" : 192,
            "byteOffset" : 9144
        },
        {
            "buffer" : 0,
            "byteLength" : 48,
            "byteOffset" : 9336
        }
    ],
    "buffers" : [
        {
            "byteLength" : 9384,
            "uri" : "data:application/octet-stream;base64,"
        }
    ]
}
