{
    "asset" : {
        "generator" : "Khronos glTF Blender I/O v1.1.46",
        "version" : "2.0"
    },
    "scene" : 0,
    "scenes" : [
        {
            "name" : "Scene",
            "nodes" : [
                0
            ]
        }
    ],
    "nodes" : [
        {
            "mesh" : 0,
            "name" : "path_stoneCorner"
        }
    ],
    "materials" : [
        {
            "doubleSided" : true,
            "emissiveFactor" : [
                0,
                0,
                0
            ],
            "name" : "_defaultMat",
            "pbrMetallicRoughness" : {
                "baseColorFactor" : [
                    1,
                    1,
                    1,
                    1
                ],
                "metallicFactor" : 0,
                "roughnessFactor" : 0.5
            }
        },
        {
            "doubleSided" : true,
            "emissiveFactor" : [
                0,
                0,
                0
            ],
            "name" : "stoneDark",
            "pbrMetallicRoughness" : {
                "baseColorFactor" : [
                    0.6039220094680786,
                    0.7098039984703064,
                    0.7294120192527771,
                    1
                ],
                "metallicFactor" : 0,
                "roughnessFactor" : 0.5
            }
        },
        {
            "doubleSided" : true,
            "emissiveFactor" : [
                0,
                0,
                0
            ],
            "name" : "stone",
            "pbrMetallicRoughness" : {
                "baseColorFactor" : [
                    0.7215690016746521,
                    0.8862749934196472,
                    0.9098039865493774,
                    1
                ],
                "metallicFactor" : 0,
                "roughnessFactor" : 0.5
            }
        }
    ],
    "meshes" : [
        {
            "name" : "ID9.001",
            "primitives" : [
                {
                    "attributes" : {
                        "POSITION" : 0,
                        "NORMAL" : 1,
                        "TEXCOORD_0" : 2
                    },
                    "indices" : 3,
                    "material" : 0
                },
                {
                    "attributes" : {
                        "POSITION" : 4,
                        "NORMAL" : 5,
                        "TEXCOORD_0" : 6
                    },
                    "indices" : 7,
                    "material" : 1
                },
                {
                    "attributes" : {
                        "POSITION" : 8,
                        "NORMAL" : 9,
                        "TEXCOORD_0" : 10
                    },
                    "indices" : 11,
                    "material" : 2
                }
            ]
        }
    ],
    "accessors" : [
        {
            "bufferView" : 0,
            "componentType" : 5126,
            "count" : 60,
            "max" : [
                0.5357180237770081,
                1.5458402913282043e-07,
                0.607915997505188
            ],
            "min" : [
                -0.9408220052719116,
                -9.904209008482212e-08,
                -0.9488300085067749
            ],
            "type" : "VEC3"
        },
        {
            "bufferView" : 1,
            "componentType" : 5126,
            "count" : 60,
            "type" : "VEC3"
        },
        {
            "bufferView" : 2,
            "componentType" : 5126,
            "count" : 60,
            "type" : "VEC2"
        },
        {
            "bufferView" : 3,
            "componentType" : 5123,
            "count" : 60,
            "type" : "SCALAR"
        },
        {
            "bufferView" : 4,
            "componentType" : 5126,
            "count" : 198,
            "max" : [
                0.5357180237770081,
                0.06000005081295967,
                0.607915997505188
            ],
            "min" : [
                -0.9408220052719116,
                -9.904209008482212e-08,
                -0.9488300085067749
            ],
            "type" : "VEC3"
        },
        {
            "bufferView" : 5,
            "componentType" : 5126,
            "count" : 198,
            "type" : "VEC3"
        },
        {
            "bufferView" : 6,
            "componentType" : 5126,
            "count" : 198,
            "type" : "VEC2"
        },
        {
            "bufferView" : 7,
            "componentType" : 5123,
            "count" : 198,
            "type" : "SCALAR"
        },
        {
            "bufferView" : 8,
            "componentType" : 5126,
            "count" : 78,
            "max" : [
                0.5357180237770081,
                0.06000005081295967,
                0.607915997505188
            ],
            "min" : [
                -0.9408220052719116,
                0.014999955892562866,
                -0.9488300085067749
            ],
            "type" : "VEC3"
        },
        {
            "bufferView" : 9,
            "componentType" : 5126,
            "count" : 78,
            "type" : "VEC3"
        },
        {
            "bufferView" : 10,
            "componentType" : 5126,
            "count" : 78,
            "type" : "VEC2"
        },
        {
            "bufferView" : 11,
            "componentType" : 5123,
            "count" : 78,
            "type" : "SCALAR"
        }
    ],
    "bufferViews" : [
        {
            "buffer" : 0,
            "byteLength" : 720,
            "byteOffset" : 0
        },
        {
            "buffer" : 0,
            "byteLength" : 720,
            "byteOffset" : 720
        },
        {
            "buffer" : 0,
            "byteLength" : 480,
            "byteOffset" : 1440
        },
        {
            "buffer" : 0,
            "byteLength" : 120,
            "byteOffset" : 1920
        },
        {
            "buffer" : 0,
            "byteLength" : 2376,
            "byteOffset" : 2040
        },
        {
            "buffer" : 0,
            "byteLength" : 2376,
            "byteOffset" : 4416
        },
        {
            "buffer" : 0,
            "byteLength" : 1584,
            "byteOffset" : 6792
        },
        {
            "buffer" : 0,
            "byteLength" : 396,
            "byteOffset" : 8376
        },
        {
            "buffer" : 0,
            "byteLength" : 936,
            "byteOffset" : 8772
        },
        {
            "buffer" : 0,
            "byteLength" : 936,
            "byteOffset" : 9708
        },
        {
            "buffer" : 0,
            "byteLength" : 624,
            "byteOffset" : 10644
        },
        {
            "buffer" : 0,
            "byteLength" : 156,
            "byteOffset" : 11268
        }
    ],
    "buffers" : [
        {
            "byteLength" : 11424,
            "uri" : "data:application/octet-stream;base64,"
        }
    ]
}
