{
    "asset" : {
        "generator" : "Khronos glTF Blender I/O v1.1.46",
        "version" : "2.0"
    },
    "scene" : 0,
    "scenes" : [
        {
            "name" : "Scene",
            "nodes" : [
                0
            ]
        }
    ],
    "nodes" : [
        {
            "mesh" : 0,
            "name" : "path_stoneCircle"
        }
    ],
    "materials" : [
        {
            "doubleSided" : true,
            "emissiveFactor" : [
                0,
                0,
                0
            ],
            "name" : "stone",
            "pbrMetallicRoughness" : {
                "baseColorFactor" : [
                    0.7215690016746521,
                    0.8862749934196472,
                    0.9098039865493774,
                    1
                ],
                "metallicFactor" : 0,
                "roughnessFactor" : 0.5
            }
        },
        {
            "doubleSided" : true,
            "emissiveFactor" : [
                0,
                0,
                0
            ],
            "name" : "stoneDark",
            "pbrMetallicRoughness" : {
                "baseColorFactor" : [
                    0.6039220094680786,
                    0.7098039984703064,
                    0.7294120192527771,
                    1
                ],
                "metallicFactor" : 0,
                "roughnessFactor" : 0.5
            }
        }
    ],
    "meshes" : [
        {
            "name" : "ID7.003",
            "primitives" : [
                {
                    "attributes" : {
                        "POSITION" : 0,
                        "NORMAL" : 1,
                        "TEXCOORD_0" : 2
                    },
                    "indices" : 3,
                    "material" : 0
                },
                {
                    "attributes" : {
                        "POSITION" : 4,
                        "NORMAL" : 5,
                        "TEXCOORD_0" : 6
                    },
                    "indices" : 7,
                    "material" : 1
                }
            ]
        }
    ],
    "accessors" : [
        {
            "bufferView" : 0,
            "componentType" : 5126,
            "count" : 118,
            "max" : [
                0.9323740005493164,
                0.06000014394521713,
                0.8766120076179504
            ],
            "min" : [
                -0.9323740005493164,
                0.014999925158917904,
                -0.8766120076179504
            ],
            "type" : "VEC3"
        },
        {
            "bufferView" : 1,
            "componentType" : 5126,
            "count" : 118,
            "type" : "VEC3"
        },
        {
            "bufferView" : 2,
            "componentType" : 5126,
            "count" : 118,
            "type" : "VEC2"
        },
        {
            "bufferView" : 3,
            "componentType" : 5123,
            "count" : 120,
            "type" : "SCALAR"
        },
        {
            "bufferView" : 4,
            "componentType" : 5126,
            "count" : 366,
            "max" : [
                0.9323740005493164,
                0.06000014394521713,
                0.8766120076179504
            ],
            "min" : [
                -0.9323740005493164,
                -1.428182230256425e-07,
                -0.8766120076179504
            ],
            "type" : "VEC3"
        },
        {
            "bufferView" : 5,
            "componentType" : 5126,
            "count" : 366,
            "type" : "VEC3"
        },
        {
            "bufferView" : 6,
            "componentType" : 5126,
            "count" : 366,
            "type" : "VEC2"
        },
        {
            "bufferView" : 7,
            "componentType" : 5123,
            "count" : 372,
            "type" : "SCALAR"
        }
    ],
    "bufferViews" : [
        {
            "buffer" : 0,
            "byteLength" : 1416,
            "byteOffset" : 0
        },
        {
            "buffer" : 0,
            "byteLength" : 1416,
            "byteOffset" : 1416
        },
        {
            "buffer" : 0,
            "byteLength" : 944,
            "byteOffset" : 2832
        },
        {
            "buffer" : 0,
            "byteLength" : 240,
            "byteOffset" : 3776
        },
        {
            "buffer" : 0,
            "byteLength" : 4392,
            "byteOffset" : 4016
        },
        {
            "buffer" : 0,
            "byteLength" : 4392,
            "byteOffset" : 8408
        },
        {
            "buffer" : 0,
            "byteLength" : 2928,
            "byteOffset" : 12800
        },
        {
            "buffer" : 0,
            "byteLength" : 744,
            "byteOffset" : 15728
        }
    ],
    "buffers" : [
        {
            "byteLength" : 16472,
            "uri" : "data:application/octet-stream;base64,"
        }
    ]
}
