{
    "asset" : {
        "generator" : "Khronos glTF Blender I/O v1.1.46",
        "version" : "2.0"
    },
    "scene" : 0,
    "scenes" : [
        {
            "name" : "Scene",
            "nodes" : [
                0
            ]
        }
    ],
    "nodes" : [
        {
            "mesh" : 0,
            "name" : "Grass Tuft1"
        }
    ],
    "materials" : [
        {
            "alphaCutoff" : 0.9990000128746033,
            "alphaMode" : "MASK",
            "doubleSided" : true,
            "emissiveFactor" : [
                0,
                0,
                0
            ],
            "name" : "grass_tuft",
            "pbrMetallicRoughness" : {
                "baseColorTexture" : {
                    "index" : 0,
                    "texCoord" : 0
                },
                "metallicFactor" : 0,
                "roughnessFactor" : 0.5
            }
        }
    ],
    "meshes" : [
        {
            "name" : "Plane.003",
            "primitives" : [
                {
                    "attributes" : {
                        "POSITION" : 0,
                        "NORMAL" : 1,
                        "TEXCOORD_0" : 2
                    },
                    "indices" : 3,
                    "material" : 0
                }
            ]
        }
    ],
    "textures" : [
        {
            "source" : 0
        }
    ],
    "images" : [
        {
            "bufferView" : 4,
            "mimeType" : "image/png",
            "name" : "grass-tuft-25967d"
        }
    ],
    "accessors" : [
        {
            "bufferView" : 0,
            "componentType" : 5126,
            "count" : 8,
            "max" : [
                0.6984325647354126,
                1.145140528678894,
                1.1965644359588623
            ],
            "min" : [
                -0.3597273826599121,
                -0.29485952854156494,
                -0.9459006786346436
            ],
            "type" : "VEC3"
        },
        {
            "bufferView" : 1,
            "componentType" : 5126,
            "count" : 8,
            "type" : "VEC3"
        },
        {
            "bufferView" : 2,
            "componentType" : 5126,
            "count" : 8,
            "type" : "VEC2"
        },
        {
            "bufferView" : 3,
            "componentType" : 5123,
            "count" : 12,
            "type" : "SCALAR"
        }
    ],
    "bufferViews" : [
        {
            "buffer" : 0,
            "byteLength" : 96,
            "byteOffset" : 0
        },
        {
            "buffer" : 0,
            "byteLength" : 96,
            "byteOffset" : 96
        },
        {
            "buffer" : 0,
            "byteLength" : 64,
            "byteOffset" : 192
        },
        {
            "buffer" : 0,
            "byteLength" : 24,
            "byteOffset" : 256
        },
        {
            "buffer" : 0,
            "byteLength" : 2365,
            "byteOffset" : 280
        }
    ],
    "buffers" : [
        {
            "byteLength" : 2648,
            "uri" : "data:application/octet-stream;base64,"
        }
    ]
}
